<svg xmlns="http://www.w3.org/2000/svg" width="144" height="61"><g fill="none" fill-rule="evenodd"><path fill="#09357A" d="M86.24 42.75c-3.284 0-5.807-2.207-5.807-5.658V36.8s6.097-.15 8.16-.15c3.52 0 4.967-.03 7.738-.07v-1.96c0-8.868-3.76-13.18-11.502-13.18-3.57 0-11.87 1.34-11.87 13.756 0 8.282 4.183 13.23 11.49 13.23 5.74 0 9.264-1.462 11.815-3.327-.287-.43-2.427-4.273-2.703-4.69-1.534 1.17-4.06 2.34-7.32 2.34l-.001.001zm-5.81-10.923c.1-1.506.64-5.002 4.44-5.002 3.897 0 4.11 3.288 4.11 5.02v.352s-2.6.07-4.155.07c-1.555 0-4.418-.07-4.418-.07l.024-.37h-.001zm30.767-9.83c7.217 0 12.1 4.558 12.1 12.72 0 10.26-6.705 13.295-13.733 13.295h-9.403c.035-.568 0-2.085 0-3.99v-18.04c0-1.9.035-3.112 0-3.985H111.2h-.003zm-2.11 21.076c3.986 0 7.227-1.318 7.227-8.355 0-5.985-3.24-7.976-7.226-7.976h-2.09v16.33h2.09l-.001.001zm24.435.95c0 1.904.093 3.99.093 3.99h-6.977s.047-2.086.047-3.99v-18.04c0-1.9-.047-3.986-.047-3.986h16.494v5.033s-3.686-.094-4.94-.094h-4.67v5.24l4.67.05c.875 0 3.886-.05 3.886-.05v4.793s-2.673-.074-3.885-.074l-4.67.027v7.1l-.001.001z"/><path fill="#FE5815" d="M36.708 9.327v-.003c.714.44 1.47 1.33 1.65 2.19-1.428 1.908-.94 11.018-5.438 10.6-.472.404-3.264.397-4.214-.226l-.716-1.076c-1.158-.761-1.302-1.334-2.378-2.106l-3.12-4.56c.075-.47.153-.933.23-1.4-1.379-2.132.356-5.694 1.636-7.15 1.528-1.737 3.113-3.922 5.858-4.29l2.137.596C34.036 1.713 38.413.33 38.87.22c.61-.147 2.11-.53 2.417.279.498 1.289-2.694.817-3.132 2.844-1.5 1.307-1.217 4.084-1.447 5.984zm-19.39 27.35l-.003.001C10.009 38.57.053 32.365-.001 27.338c1.232-1.535 1.035-4.23 3.715-4.36.296.603-.067.258.656.5.083-.148.171-.29.253-.44.41-.448.499-.927.572-1.803.384.024.763.049 1.146.072.132-2.416-.016-3.283.838-4.276-.005.079.3-.254.295-.178.466.739.324.419.666 1.352.876 2.358 4.148 7.866 7.06 8.24 2.876 1.964 9.632-2.767 10.092 2.83 1.485 2.658-3.184 5.922-4.542 6.602-.852.425-2.479.552-3.432.8zm33.066-15.275l-.002-.001c8.182-1.242 16.774.705 17.474 9.08-1.164 1.308.132 2.468-2.334 2.868-.374.285-1.287.22-1.287.22-.025.232.057.657.057.657s-.25.403-.69.507c-.976.237-2.443.567-3.04.477-2.601-.41-1.311-.565-3.073-.13-.015-.15-.155-.524-.25-1.148-1.802-4.48-11.062-4.145-16.395-3.75-.678-.46-.994-1.29-1.12-2.068-.123-.784.045-1.528.292-1.866.246-.333.583-.87 1.728-1.67 1.64-1.136 4.297-2.52 8.64-3.176zm-9.52 18.218l-.002-.003c8.687.299 20.418 8.465 20.362 17.085-.431.468-.468 1.372-.918 1.832-.429.448-.948.181-1.602.464-2.418 1.025-2.164 2.096-5.67 1.833-.387-.736-5.275-4.548-6.465-4.584-.382.077-1.261-.553-1.364-.658 0-.147-.212-.545-.212-.7.382-.418.687-.576.66-2.764-.372-.476.04-1.696-.342-2.216-.364 0-.73-1.847-1.29-2.515-.498-.132-1.547-1.95-1.932-2.277-1.245-1.035-2.935-1.63-3.675-3.1.076 0-.107-.223-.034-.223.724-1.464 1.246-1.229 2.484-2.174zm-13.81 1.97l.003.002c1.286-.15 1.978-.137 2.562.5 1.497 1.778 2.055 8.962.402 11.962-.671 1.223-2.109 2.993-3.165 3.897-.728.623-1.628.536-2.448 1.086-1.471.993-2.991 1.721-4.736 1.256-.761.056-1.523.106-2.285.16-.341-.09-1.506-.694-1.893-.78-.686.05-1.373.097-2.056.15-.098-.306-.198-.602-.293-.9-.533.038-1.067.076-1.603.11-.467-.288-.632-1.352-1.042-1.76-.594-.6-.925-.203-1.238-1.29.483-.978-.831-4.804-1.087-6.436-.272-.862-.406-.994-.178-1.01 3.507 3.011 10.613 1.427 13.933-1.723 1.032-.974 2.347-3.022 2.922-3.922.375-.592 1.715-.784 2.202-1.302z"/></g></svg>