<svg width="32" height="32" viewBox="0 0 32 32" fill="none" xmlns="http://www.w3.org/2000/svg">
<mask id="mask0_6811_497" style="mask-type:luminance" maskUnits="userSpaceOnUse" x="0" y="1" width="32" height="29">
<path fill-rule="evenodd" clip-rule="evenodd" d="M0 1H31.9999V29.7059H0V1Z" fill="white"/>
</mask>
<g mask="url(#mask0_6811_497)">
<path fill-rule="evenodd" clip-rule="evenodd" d="M17.3093 5.39848C17.418 4.50181 17.2853 3.19248 17.992 2.57648C18.1993 1.62048 19.7053 1.84381 19.47 1.23448C19.324 0.853144 18.6173 1.03514 18.3313 1.10514C18.1133 1.15714 16.05 1.80914 15.2573 1.89781C14.9207 1.80448 14.5847 1.71181 14.25 1.61714C12.9533 1.79248 12.2067 2.82248 11.4867 3.64048C10.8827 4.32648 10.064 6.00781 10.7153 7.01381C10.68 7.23314 10.642 7.45314 10.6067 7.67381L12.0773 9.82314C12.5853 10.1878 12.6533 10.4585 13.1993 10.8178C13.3127 10.9865 13.424 11.1551 13.5373 11.3258C13.9833 11.6185 15.3027 11.6231 15.5233 11.4311C17.646 11.6291 17.4153 7.33448 18.088 6.43114C18.0033 6.02648 17.6467 5.60581 17.3093 5.39848M8.16533 18.2945C8.616 18.1785 9.38267 18.1185 9.78533 17.9178C10.426 17.5978 12.6273 16.0591 11.926 14.8051C11.7113 12.1651 8.524 14.3965 7.16667 13.4705C5.79467 13.2931 4.25133 10.6971 3.838 9.58381C3.678 9.14448 3.74333 9.29448 3.52267 8.94648C3.52467 8.91181 3.38267 9.06714 3.384 9.03114C2.984 9.49781 3.052 9.90714 2.99 11.0465C2.80933 11.0345 2.63 11.0245 2.45 11.0118C2.41533 11.4258 2.374 11.6505 2.18133 11.8631C2.142 11.9338 2.10067 12.0005 2.06067 12.0725C1.71867 11.9578 1.89067 12.1191 1.75133 11.8331C0.488667 11.8978 0.580667 13.1685 0 13.8891C0.0253333 16.2625 4.71933 19.1871 8.16533 18.2945M23.7587 11.0938C21.7113 11.4011 20.4593 12.0551 19.6847 12.5905C19.144 12.9678 18.9867 13.2198 18.872 13.3791C18.7533 13.5378 18.6747 13.8885 18.732 14.2591C18.792 14.6251 18.942 15.0165 19.2613 15.2351C21.7753 15.0491 26.1433 14.8898 26.9927 17.0025C27.0373 17.2971 27.1047 17.4745 27.11 17.5445C27.9433 17.3385 27.3333 17.4118 28.5613 17.6031C28.842 17.6471 29.5347 17.4918 29.994 17.3785C30.2027 17.3298 30.322 17.1405 30.322 17.1405C30.322 17.1405 30.2813 16.9398 30.2933 16.8291C30.2933 16.8291 30.724 16.8618 30.9 16.7258C32.0633 16.5385 31.452 15.9925 32 15.3751C31.6713 11.4258 27.6187 10.5085 23.7593 11.0938M19.2693 19.6845C18.6853 20.1305 18.4407 20.0205 18.0993 20.7105C18.0633 20.7105 18.1507 20.8131 18.1167 20.8131C18.464 21.5085 19.2613 21.7871 19.848 22.2751C20.0293 22.4298 20.5247 23.2885 20.76 23.3505C21.024 23.6645 21.196 24.5365 21.3693 24.5365C21.5473 24.7811 21.3533 25.3578 21.5293 25.5818C21.54 26.6158 21.398 26.6878 21.2173 26.8858C21.2173 26.9578 21.316 27.1451 21.316 27.2151C21.3647 27.2638 21.78 27.5618 21.9607 27.5258C22.522 27.5418 24.826 29.3405 25.0093 29.6871C26.662 29.8111 26.5427 29.3058 27.6827 28.8225C27.99 28.6898 28.2367 28.8151 28.438 28.6051C28.6507 28.3885 28.6667 27.9625 28.8707 27.7405C28.8973 23.6745 23.3667 19.8245 19.2693 19.6838M12.7587 20.6125C12.5267 20.8571 11.896 20.9471 11.718 21.2278C11.448 21.6518 10.8267 22.6158 10.342 23.0758C8.776 24.5618 5.42467 25.3091 3.77133 23.8891C3.66333 23.8965 3.726 23.9598 3.856 24.3658C3.97667 25.1345 4.596 26.9398 4.36733 27.3998C4.51667 27.9125 4.67067 27.7245 4.95267 28.0091C5.14467 28.2011 5.22267 28.7038 5.44333 28.8391C5.69467 28.8225 5.94733 28.8031 6.19867 28.7865C6.24333 28.9265 6.292 29.0671 6.336 29.2105C6.658 29.1871 6.98333 29.1625 7.30667 29.1398C7.48867 29.1818 8.038 29.4651 8.19933 29.5091C8.55867 29.4838 8.91733 29.4591 9.27533 29.4351C10.0987 29.6538 10.8167 29.3098 11.5107 28.8411C11.8973 28.5818 12.3207 28.6231 12.664 28.3298C13.162 27.9018 13.8407 27.0678 14.158 26.4898C14.936 25.0765 14.672 21.6878 13.966 20.8505C13.69 20.5485 13.364 20.5425 12.7587 20.6125" fill="#F1471C"/>
</g>
<rect x="8" y="24" width="24" height="8" rx="1" fill="#297EF1"/>
<path fill-rule="evenodd" clip-rule="evenodd" d="M11.051 30.2001V25.8621H12.548C12.832 25.8621 13.0745 25.8891 13.2755 25.9431C13.4765 25.9971 13.6415 26.0741 13.7705 26.1741C13.8995 26.2741 13.994 26.3951 14.054 26.5371C14.114 26.6791 14.144 26.8391 14.144 27.0171C14.144 27.1191 14.129 27.2166 14.099 27.3096C14.069 27.4026 14.0225 27.4896 13.9595 27.5706C13.8965 27.6516 13.8165 27.7251 13.7195 27.7911C13.6225 27.8571 13.507 27.9131 13.373 27.9591C13.969 28.0931 14.267 28.4151 14.267 28.9251C14.267 29.1091 14.232 29.2791 14.162 29.4351C14.092 29.5911 13.99 29.7256 13.856 29.8386C13.722 29.9516 13.557 30.0401 13.361 30.1041C13.165 30.1681 12.941 30.2001 12.689 30.2001H11.051ZM11.858 28.2981V29.5701H12.677C12.827 29.5701 12.9525 29.5521 13.0535 29.5161C13.1545 29.4801 13.2355 29.4321 13.2965 29.3721C13.3575 29.3121 13.4015 29.2421 13.4285 29.1621C13.4555 29.0821 13.469 28.9971 13.469 28.9071C13.469 28.8131 13.454 28.7286 13.424 28.6536C13.394 28.5786 13.347 28.5146 13.283 28.4616C13.219 28.4086 13.137 28.3681 13.037 28.3401C12.937 28.3121 12.816 28.2981 12.674 28.2981H11.858ZM11.858 27.7401H12.503C12.777 27.7401 12.985 27.6901 13.127 27.5901C13.269 27.4901 13.34 27.3311 13.34 27.1131C13.34 26.8871 13.276 26.7261 13.148 26.6301C13.02 26.5341 12.82 26.4861 12.548 26.4861H11.858V27.7401ZM18.896 25.8621V26.5041H16.973V27.7071H18.488V28.3281H16.973V29.5551H18.896V30.2001H16.16V25.8621H18.896ZM23.852 25.8621V26.5251H22.547V30.2001H21.74V26.5251H20.429V25.8621H23.852ZM29.378 30.2001H28.754C28.684 30.2001 28.6265 30.1826 28.5815 30.1476C28.5365 30.1126 28.504 30.0691 28.484 30.0171L28.16 29.1321H26.363L26.039 30.0171C26.023 30.0631 25.9915 30.1051 25.9445 30.1431C25.8975 30.1811 25.84 30.2001 25.772 30.2001H25.145L26.849 25.8621H27.674L29.378 30.2001ZM26.57 28.5621H27.953L27.425 27.1191C27.401 27.0551 27.3745 26.9796 27.3455 26.8926C27.3165 26.8056 27.288 26.7111 27.26 26.6091C27.232 26.7111 27.2045 26.8061 27.1775 26.8941C27.1505 26.9821 27.124 27.0591 27.098 27.1251L26.57 28.5621Z" fill="white"/>
</svg>
